<mxfile host="app.diagrams.net" agent="Mozilla/5.0 (Windows NT 10.0; Win64; x64) AppleWebKit/537.36 (KHTML, like Gecko) Chrome/134.0.0.0 YaBrowser/25.4.0.0 Safari/537.36" version="26.1.3">
  <diagram name="Страница — 1" id="LcVigeyb9Ccx5VZ8GfXw">
    <mxGraphModel dx="1094" dy="590" grid="1" gridSize="10" guides="1" tooltips="1" connect="1" arrows="1" fold="1" page="1" pageScale="1" pageWidth="827" pageHeight="1169" math="0" shadow="0">
      <root>
        <mxCell id="0" />
        <mxCell id="1" parent="0" />
        <mxCell id="bPPbEALgcxV2o_7ox7Bf-4" style="edgeStyle=orthogonalEdgeStyle;rounded=0;orthogonalLoop=1;jettySize=auto;html=1;exitX=0.75;exitY=0;exitDx=0;exitDy=0;startArrow=classic;startFill=1;" parent="1" source="bPPbEALgcxV2o_7ox7Bf-1" edge="1">
          <mxGeometry relative="1" as="geometry">
            <mxPoint x="500" y="370" as="targetPoint" />
            <Array as="points">
              <mxPoint x="470" y="370" />
            </Array>
          </mxGeometry>
        </mxCell>
        <mxCell id="bPPbEALgcxV2o_7ox7Bf-20" value="UART" style="edgeLabel;html=1;align=center;verticalAlign=middle;resizable=0;points=[];" parent="bPPbEALgcxV2o_7ox7Bf-4" vertex="1" connectable="0">
          <mxGeometry x="0.1963" relative="1" as="geometry">
            <mxPoint as="offset" />
          </mxGeometry>
        </mxCell>
        <mxCell id="bPPbEALgcxV2o_7ox7Bf-5" style="edgeStyle=orthogonalEdgeStyle;rounded=0;orthogonalLoop=1;jettySize=auto;html=1;exitX=0.5;exitY=0;exitDx=0;exitDy=0;entryX=0.5;entryY=1;entryDx=0;entryDy=0;startArrow=classic;startFill=1;" parent="1" source="bPPbEALgcxV2o_7ox7Bf-1" target="bPPbEALgcxV2o_7ox7Bf-16" edge="1">
          <mxGeometry relative="1" as="geometry">
            <mxPoint x="440.2857142857142" y="340" as="targetPoint" />
          </mxGeometry>
        </mxCell>
        <mxCell id="bPPbEALgcxV2o_7ox7Bf-19" value="UART" style="edgeLabel;html=1;align=center;verticalAlign=middle;resizable=0;points=[];" parent="bPPbEALgcxV2o_7ox7Bf-5" vertex="1" connectable="0">
          <mxGeometry x="-0.3644" relative="1" as="geometry">
            <mxPoint as="offset" />
          </mxGeometry>
        </mxCell>
        <mxCell id="bPPbEALgcxV2o_7ox7Bf-7" style="edgeStyle=orthogonalEdgeStyle;rounded=0;orthogonalLoop=1;jettySize=auto;html=1;exitX=0;exitY=0.25;exitDx=0;exitDy=0;" parent="1" edge="1">
          <mxGeometry relative="1" as="geometry">
            <mxPoint x="320" y="480" as="targetPoint" />
            <mxPoint x="460" y="505" as="sourcePoint" />
          </mxGeometry>
        </mxCell>
        <mxCell id="bPPbEALgcxV2o_7ox7Bf-9" style="edgeStyle=orthogonalEdgeStyle;rounded=0;orthogonalLoop=1;jettySize=auto;html=1;exitX=0;exitY=0.75;exitDx=0;exitDy=0;startArrow=classic;startFill=1;endArrow=none;" parent="1" source="bPPbEALgcxV2o_7ox7Bf-1" target="bPPbEALgcxV2o_7ox7Bf-29" edge="1">
          <mxGeometry relative="1" as="geometry">
            <mxPoint x="320" y="560" as="targetPoint" />
          </mxGeometry>
        </mxCell>
        <mxCell id="bPPbEALgcxV2o_7ox7Bf-32" value="АЦП" style="edgeLabel;html=1;align=center;verticalAlign=middle;resizable=0;points=[];" parent="bPPbEALgcxV2o_7ox7Bf-9" vertex="1" connectable="0">
          <mxGeometry x="0.6534" y="-1" relative="1" as="geometry">
            <mxPoint as="offset" />
          </mxGeometry>
        </mxCell>
        <mxCell id="bPPbEALgcxV2o_7ox7Bf-25" style="edgeStyle=orthogonalEdgeStyle;rounded=0;orthogonalLoop=1;jettySize=auto;html=1;exitX=1;exitY=0.25;exitDx=0;exitDy=0;entryX=0.5;entryY=1;entryDx=0;entryDy=0;startArrow=classic;startFill=1;" parent="1" source="bPPbEALgcxV2o_7ox7Bf-1" target="bPPbEALgcxV2o_7ox7Bf-24" edge="1">
          <mxGeometry relative="1" as="geometry" />
        </mxCell>
        <mxCell id="bPPbEALgcxV2o_7ox7Bf-27" value="I2C" style="edgeLabel;html=1;align=center;verticalAlign=middle;resizable=0;points=[];" parent="bPPbEALgcxV2o_7ox7Bf-25" vertex="1" connectable="0">
          <mxGeometry x="-0.2952" y="1" relative="1" as="geometry">
            <mxPoint as="offset" />
          </mxGeometry>
        </mxCell>
        <mxCell id="bPPbEALgcxV2o_7ox7Bf-28" style="edgeStyle=orthogonalEdgeStyle;rounded=0;orthogonalLoop=1;jettySize=auto;html=1;entryX=0;entryY=0.5;entryDx=0;entryDy=0;startArrow=classic;startFill=1;" parent="1" source="bPPbEALgcxV2o_7ox7Bf-1" target="bPPbEALgcxV2o_7ox7Bf-26" edge="1">
          <mxGeometry relative="1" as="geometry" />
        </mxCell>
        <mxCell id="bPPbEALgcxV2o_7ox7Bf-31" value="RMII" style="edgeLabel;html=1;align=center;verticalAlign=middle;resizable=0;points=[];" parent="bPPbEALgcxV2o_7ox7Bf-28" vertex="1" connectable="0">
          <mxGeometry x="0.1896" y="1" relative="1" as="geometry">
            <mxPoint as="offset" />
          </mxGeometry>
        </mxCell>
        <mxCell id="bPPbEALgcxV2o_7ox7Bf-1" value="&lt;font size=&quot;3&quot;&gt;МК&lt;/font&gt;" style="rounded=0;whiteSpace=wrap;html=1;" parent="1" vertex="1">
          <mxGeometry x="380" y="490" width="120" height="60" as="geometry" />
        </mxCell>
        <mxCell id="bPPbEALgcxV2o_7ox7Bf-12" style="edgeStyle=orthogonalEdgeStyle;rounded=0;orthogonalLoop=1;jettySize=auto;html=1;exitX=1;exitY=0.5;exitDx=0;exitDy=0;entryX=0;entryY=0.5;entryDx=0;entryDy=0;" parent="1" source="bPPbEALgcxV2o_7ox7Bf-10" target="bPPbEALgcxV2o_7ox7Bf-1" edge="1">
          <mxGeometry relative="1" as="geometry" />
        </mxCell>
        <mxCell id="bPPbEALgcxV2o_7ox7Bf-33" value="I2S" style="edgeLabel;html=1;align=center;verticalAlign=middle;resizable=0;points=[];" parent="bPPbEALgcxV2o_7ox7Bf-12" vertex="1" connectable="0">
          <mxGeometry x="-0.1914" relative="1" as="geometry">
            <mxPoint as="offset" />
          </mxGeometry>
        </mxCell>
        <mxCell id="bPPbEALgcxV2o_7ox7Bf-10" value="Микрофон&lt;br&gt;ICS-43434" style="rounded=0;whiteSpace=wrap;html=1;" parent="1" vertex="1">
          <mxGeometry x="160" y="490" width="120" height="60" as="geometry" />
        </mxCell>
        <mxCell id="bPPbEALgcxV2o_7ox7Bf-13" value="Семистор" style="rounded=0;whiteSpace=wrap;html=1;" parent="1" vertex="1">
          <mxGeometry x="260" y="420" width="120" height="60" as="geometry" />
        </mxCell>
        <mxCell id="bPPbEALgcxV2o_7ox7Bf-14" value="Реле" style="rounded=0;whiteSpace=wrap;html=1;" parent="1" vertex="1">
          <mxGeometry x="260" y="340" width="120" height="60" as="geometry" />
        </mxCell>
        <mxCell id="bPPbEALgcxV2o_7ox7Bf-15" value="" style="endArrow=classic;html=1;rounded=0;exitX=0.25;exitY=0;exitDx=0;exitDy=0;entryX=1;entryY=0.5;entryDx=0;entryDy=0;" parent="1" source="bPPbEALgcxV2o_7ox7Bf-1" target="bPPbEALgcxV2o_7ox7Bf-14" edge="1">
          <mxGeometry width="50" height="50" relative="1" as="geometry">
            <mxPoint x="420" y="560" as="sourcePoint" />
            <mxPoint x="410" y="370" as="targetPoint" />
            <Array as="points">
              <mxPoint x="410" y="370" />
            </Array>
          </mxGeometry>
        </mxCell>
        <mxCell id="bPPbEALgcxV2o_7ox7Bf-21" value="GPIO" style="edgeLabel;html=1;align=center;verticalAlign=middle;resizable=0;points=[];" parent="bPPbEALgcxV2o_7ox7Bf-15" vertex="1" connectable="0">
          <mxGeometry x="0.1961" relative="1" as="geometry">
            <mxPoint as="offset" />
          </mxGeometry>
        </mxCell>
        <mxCell id="bPPbEALgcxV2o_7ox7Bf-16" value="ESP-12F" style="rounded=0;whiteSpace=wrap;html=1;" parent="1" vertex="1">
          <mxGeometry x="380" y="270" width="120" height="60" as="geometry" />
        </mxCell>
        <mxCell id="bPPbEALgcxV2o_7ox7Bf-17" value="" style="endArrow=classic;startArrow=classic;html=1;rounded=0;entryX=0.5;entryY=1;entryDx=0;entryDy=0;exitX=0.5;exitY=0;exitDx=0;exitDy=0;" parent="1" source="bPPbEALgcxV2o_7ox7Bf-13" target="bPPbEALgcxV2o_7ox7Bf-14" edge="1">
          <mxGeometry width="50" height="50" relative="1" as="geometry">
            <mxPoint x="120" y="420" as="sourcePoint" />
            <mxPoint x="170" y="370" as="targetPoint" />
          </mxGeometry>
        </mxCell>
        <mxCell id="bPPbEALgcxV2o_7ox7Bf-18" value="GSM800C" style="rounded=0;whiteSpace=wrap;html=1;" parent="1" vertex="1">
          <mxGeometry x="500" y="340" width="120" height="60" as="geometry" />
        </mxCell>
        <mxCell id="bPPbEALgcxV2o_7ox7Bf-24" value="INA219" style="rounded=0;whiteSpace=wrap;html=1;" parent="1" vertex="1">
          <mxGeometry x="500" y="420" width="120" height="60" as="geometry" />
        </mxCell>
        <mxCell id="bPPbEALgcxV2o_7ox7Bf-26" value="Ethernet" style="rounded=0;whiteSpace=wrap;html=1;" parent="1" vertex="1">
          <mxGeometry x="600" y="490" width="120" height="60" as="geometry" />
        </mxCell>
        <mxCell id="bPPbEALgcxV2o_7ox7Bf-29" value="Измерение сети частоты и амплитуды" style="rounded=0;whiteSpace=wrap;html=1;" parent="1" vertex="1">
          <mxGeometry x="260" y="560" width="120" height="60" as="geometry" />
        </mxCell>
        <mxCell id="bPPbEALgcxV2o_7ox7Bf-35" style="edgeStyle=orthogonalEdgeStyle;rounded=0;orthogonalLoop=1;jettySize=auto;html=1;entryX=0.5;entryY=1;entryDx=0;entryDy=0;startArrow=classic;startFill=1;" parent="1" source="bPPbEALgcxV2o_7ox7Bf-34" target="bPPbEALgcxV2o_7ox7Bf-1" edge="1">
          <mxGeometry relative="1" as="geometry" />
        </mxCell>
        <mxCell id="bPPbEALgcxV2o_7ox7Bf-50" value="I2C" style="edgeLabel;html=1;align=center;verticalAlign=middle;resizable=0;points=[];" parent="bPPbEALgcxV2o_7ox7Bf-35" vertex="1" connectable="0">
          <mxGeometry x="-0.1178" relative="1" as="geometry">
            <mxPoint as="offset" />
          </mxGeometry>
        </mxCell>
        <mxCell id="bPPbEALgcxV2o_7ox7Bf-34" value="&#xa;&lt;span style=&quot;color: rgb(0, 0, 0); font-family: Helvetica; font-size: 12px; font-style: normal; font-variant-ligatures: normal; font-variant-caps: normal; font-weight: 400; letter-spacing: normal; orphans: 2; text-align: center; text-indent: 0px; text-transform: none; widows: 2; word-spacing: 0px; -webkit-text-stroke-width: 0px; white-space: normal; background-color: rgb(251, 251, 251); text-decoration-thickness: initial; text-decoration-style: initial; text-decoration-color: initial; display: inline !important; float: none;&quot;&gt;Экран&lt;/span&gt;&#xa;&#xa;" style="rounded=0;whiteSpace=wrap;html=1;" parent="1" vertex="1">
          <mxGeometry x="380" y="710" width="120" height="60" as="geometry" />
        </mxCell>
        <mxCell id="bPPbEALgcxV2o_7ox7Bf-36" value="Микрофон аналоговый" style="rounded=0;whiteSpace=wrap;html=1;" parent="1" vertex="1">
          <mxGeometry x="500" y="560" width="120" height="60" as="geometry" />
        </mxCell>
        <mxCell id="bPPbEALgcxV2o_7ox7Bf-38" style="edgeStyle=orthogonalEdgeStyle;rounded=0;orthogonalLoop=1;jettySize=auto;html=1;exitX=0.5;exitY=0;exitDx=0;exitDy=0;entryX=1;entryY=0.833;entryDx=0;entryDy=0;entryPerimeter=0;" parent="1" source="bPPbEALgcxV2o_7ox7Bf-36" target="bPPbEALgcxV2o_7ox7Bf-1" edge="1">
          <mxGeometry relative="1" as="geometry" />
        </mxCell>
        <mxCell id="bPPbEALgcxV2o_7ox7Bf-46" value="АЦП" style="edgeLabel;html=1;align=center;verticalAlign=middle;resizable=0;points=[];" parent="bPPbEALgcxV2o_7ox7Bf-38" vertex="1" connectable="0">
          <mxGeometry x="0.227" y="-1" relative="1" as="geometry">
            <mxPoint as="offset" />
          </mxGeometry>
        </mxCell>
        <mxCell id="bPPbEALgcxV2o_7ox7Bf-41" style="edgeStyle=orthogonalEdgeStyle;rounded=0;orthogonalLoop=1;jettySize=auto;html=1;exitX=0;exitY=0.5;exitDx=0;exitDy=0;entryX=0.75;entryY=1;entryDx=0;entryDy=0;startArrow=classic;startFill=1;" parent="1" source="bPPbEALgcxV2o_7ox7Bf-39" target="bPPbEALgcxV2o_7ox7Bf-1" edge="1">
          <mxGeometry relative="1" as="geometry" />
        </mxCell>
        <mxCell id="bPPbEALgcxV2o_7ox7Bf-52" value="SPI" style="edgeLabel;html=1;align=center;verticalAlign=middle;resizable=0;points=[];" parent="bPPbEALgcxV2o_7ox7Bf-41" vertex="1" connectable="0">
          <mxGeometry x="0.0566" relative="1" as="geometry">
            <mxPoint as="offset" />
          </mxGeometry>
        </mxCell>
        <mxCell id="bPPbEALgcxV2o_7ox7Bf-39" value="Память" style="rounded=0;whiteSpace=wrap;html=1;" parent="1" vertex="1">
          <mxGeometry x="500" y="640" width="120" height="60" as="geometry" />
        </mxCell>
        <mxCell id="bPPbEALgcxV2o_7ox7Bf-42" style="edgeStyle=orthogonalEdgeStyle;rounded=0;orthogonalLoop=1;jettySize=auto;html=1;entryX=0.25;entryY=1;entryDx=0;entryDy=0;" parent="1" source="bPPbEALgcxV2o_7ox7Bf-40" target="bPPbEALgcxV2o_7ox7Bf-1" edge="1">
          <mxGeometry relative="1" as="geometry">
            <Array as="points">
              <mxPoint x="410" y="670" />
            </Array>
          </mxGeometry>
        </mxCell>
        <mxCell id="bPPbEALgcxV2o_7ox7Bf-51" value="GPIO" style="edgeLabel;html=1;align=center;verticalAlign=middle;resizable=0;points=[];" parent="bPPbEALgcxV2o_7ox7Bf-42" vertex="1" connectable="0">
          <mxGeometry x="0.0655" relative="1" as="geometry">
            <mxPoint as="offset" />
          </mxGeometry>
        </mxCell>
        <mxCell id="bPPbEALgcxV2o_7ox7Bf-40" value="Дискретные вкоды" style="rounded=0;whiteSpace=wrap;html=1;" parent="1" vertex="1">
          <mxGeometry x="260" y="640" width="120" height="60" as="geometry" />
        </mxCell>
      </root>
    </mxGraphModel>
  </diagram>
</mxfile>
